<mxfile host="Electron" modified="2024-04-07T13:58:54.351Z" agent="Mozilla/5.0 (Windows NT 10.0; Win64; x64) AppleWebKit/537.36 (KHTML, like Gecko) draw.io/24.1.0 Chrome/120.0.6099.109 Electron/28.1.0 Safari/537.36" etag="WcJR8UMFAUyNQie4U6bl" version="24.1.0" type="device">
  <diagram name="Страница — 1" id="42tt33WAqZ7VRVt3Esu2">
    <mxGraphModel dx="1434" dy="844" grid="1" gridSize="10" guides="1" tooltips="1" connect="1" arrows="1" fold="1" page="1" pageScale="1" pageWidth="827" pageHeight="1169" math="0" shadow="0">
      <root>
        <mxCell id="0" />
        <mxCell id="1" parent="0" />
        <mxCell id="6qRR2CGqZFNqrqxm02sn-1" value="" style="edgeStyle=orthogonalEdgeStyle;rounded=0;orthogonalLoop=1;jettySize=auto;html=1;" edge="1" parent="1" source="6qRR2CGqZFNqrqxm02sn-2" target="6qRR2CGqZFNqrqxm02sn-4">
          <mxGeometry relative="1" as="geometry" />
        </mxCell>
        <mxCell id="6qRR2CGqZFNqrqxm02sn-2" value="&lt;font style=&quot;font-size: 20px;&quot;&gt;Start&lt;/font&gt;" style="ellipse;whiteSpace=wrap;html=1;" vertex="1" parent="1">
          <mxGeometry x="260" y="140" width="140" height="60" as="geometry" />
        </mxCell>
        <mxCell id="6qRR2CGqZFNqrqxm02sn-3" value="" style="edgeStyle=orthogonalEdgeStyle;rounded=0;orthogonalLoop=1;jettySize=auto;html=1;" edge="1" parent="1" source="6qRR2CGqZFNqrqxm02sn-4">
          <mxGeometry relative="1" as="geometry">
            <mxPoint x="330" y="360" as="targetPoint" />
          </mxGeometry>
        </mxCell>
        <mxCell id="6qRR2CGqZFNqrqxm02sn-4" value="&lt;font style=&quot;font-size: 15px;&quot;&gt;&lt;font style=&quot;font-size: 15px;&quot;&gt;strArr1[&lt;span style=&quot;color: rgb(44, 45, 48); font-family: Onest, Roboto, &amp;quot;San Francisco&amp;quot;, &amp;quot;Helvetica Neue&amp;quot;, Helvetica, Arial; background-color: rgb(255, 255, 255);&quot;&gt;“Hello”, “2”, “world”, “:-)”];&lt;/span&gt;&lt;/font&gt;&lt;/font&gt;&lt;div&gt;&lt;div style=&quot;&quot;&gt;&lt;span style=&quot;font-size: 15px;&quot;&gt;&lt;font face=&quot;Onest, Roboto, San Francisco, Helvetica Neue, Helvetica, Arial&quot; color=&quot;#2c2d30&quot;&gt;strArr2[] = &quot; &quot;;&lt;/font&gt;&lt;/span&gt;&lt;/div&gt;&lt;font style=&quot;font-size: 15px;&quot;&gt;i = 0;&lt;/font&gt;&lt;div&gt;&lt;span style=&quot;font-size: 15px;&quot;&gt;sizeStrArr1;&lt;/span&gt;&lt;br&gt;&lt;/div&gt;&lt;div&gt;&lt;span style=&quot;font-size: 15px;&quot;&gt;sizeLenth = 3;&lt;/span&gt;&lt;/div&gt;&lt;/div&gt;" style="shape=parallelogram;perimeter=parallelogramPerimeter;whiteSpace=wrap;html=1;fixedSize=1;align=center;" vertex="1" parent="1">
          <mxGeometry x="200" y="240" width="260" height="100" as="geometry" />
        </mxCell>
        <mxCell id="6qRR2CGqZFNqrqxm02sn-5" value="" style="edgeStyle=orthogonalEdgeStyle;rounded=0;orthogonalLoop=1;jettySize=auto;html=1;" edge="1" parent="1" target="6qRR2CGqZFNqrqxm02sn-8">
          <mxGeometry relative="1" as="geometry">
            <mxPoint x="330" y="540" as="sourcePoint" />
          </mxGeometry>
        </mxCell>
        <mxCell id="6qRR2CGqZFNqrqxm02sn-15" value="yes" style="edgeLabel;html=1;align=center;verticalAlign=middle;resizable=0;points=[];" vertex="1" connectable="0" parent="6qRR2CGqZFNqrqxm02sn-5">
          <mxGeometry x="0.0769" y="1" relative="1" as="geometry">
            <mxPoint x="-1" y="22" as="offset" />
          </mxGeometry>
        </mxCell>
        <mxCell id="6qRR2CGqZFNqrqxm02sn-26" style="edgeStyle=orthogonalEdgeStyle;rounded=0;orthogonalLoop=1;jettySize=auto;html=1;entryX=1;entryY=0.5;entryDx=0;entryDy=0;" edge="1" parent="1" source="6qRR2CGqZFNqrqxm02sn-6" target="6qRR2CGqZFNqrqxm02sn-20">
          <mxGeometry relative="1" as="geometry">
            <Array as="points">
              <mxPoint x="520" y="540" />
              <mxPoint x="520" y="695" />
            </Array>
          </mxGeometry>
        </mxCell>
        <mxCell id="6qRR2CGqZFNqrqxm02sn-27" value="no" style="edgeLabel;html=1;align=center;verticalAlign=middle;resizable=0;points=[];" vertex="1" connectable="0" parent="6qRR2CGqZFNqrqxm02sn-26">
          <mxGeometry x="-0.619" y="-2" relative="1" as="geometry">
            <mxPoint as="offset" />
          </mxGeometry>
        </mxCell>
        <mxCell id="6qRR2CGqZFNqrqxm02sn-6" value="&lt;font style=&quot;font-size: 15px;&quot;&gt;strArr1[i] &amp;lt; sizeLenth&amp;nbsp;&amp;nbsp;&lt;/font&gt;" style="rhombus;whiteSpace=wrap;html=1;" vertex="1" parent="1">
          <mxGeometry x="170" y="500" width="320" height="80" as="geometry" />
        </mxCell>
        <mxCell id="6qRR2CGqZFNqrqxm02sn-18" style="edgeStyle=orthogonalEdgeStyle;rounded=0;orthogonalLoop=1;jettySize=auto;html=1;exitX=0;exitY=0.5;exitDx=0;exitDy=0;entryX=0;entryY=0.5;entryDx=0;entryDy=0;" edge="1" parent="1" source="6qRR2CGqZFNqrqxm02sn-20" target="6qRR2CGqZFNqrqxm02sn-13">
          <mxGeometry relative="1" as="geometry">
            <Array as="points">
              <mxPoint x="110" y="695" />
              <mxPoint x="110" y="400" />
            </Array>
          </mxGeometry>
        </mxCell>
        <mxCell id="6qRR2CGqZFNqrqxm02sn-21" value="" style="edgeStyle=orthogonalEdgeStyle;rounded=0;orthogonalLoop=1;jettySize=auto;html=1;" edge="1" parent="1" source="6qRR2CGqZFNqrqxm02sn-8" target="6qRR2CGqZFNqrqxm02sn-20">
          <mxGeometry relative="1" as="geometry" />
        </mxCell>
        <mxCell id="6qRR2CGqZFNqrqxm02sn-8" value="&lt;font style=&quot;font-size: 15px;&quot;&gt;strArr2[] = &quot; &quot; + strArr1[i];&lt;/font&gt;" style="rounded=0;whiteSpace=wrap;html=1;" vertex="1" parent="1">
          <mxGeometry x="190" y="610" width="280" height="40" as="geometry" />
        </mxCell>
        <mxCell id="6qRR2CGqZFNqrqxm02sn-9" value="&lt;font style=&quot;font-size: 16px;&quot;&gt;Написать программу, которая из имеющегося массива строк формирует новый &lt;br&gt;массив из строк, длина которых меньше, либо равна 3 символам.&lt;/font&gt;" style="text;html=1;align=center;verticalAlign=middle;resizable=0;points=[];autosize=1;strokeColor=none;fillColor=none;" vertex="1" parent="1">
          <mxGeometry x="90" y="50" width="610" height="50" as="geometry" />
        </mxCell>
        <mxCell id="6qRR2CGqZFNqrqxm02sn-11" value="" style="edgeStyle=orthogonalEdgeStyle;rounded=0;orthogonalLoop=1;jettySize=auto;html=1;" edge="1" parent="1" source="6qRR2CGqZFNqrqxm02sn-13" target="6qRR2CGqZFNqrqxm02sn-6">
          <mxGeometry relative="1" as="geometry" />
        </mxCell>
        <mxCell id="6qRR2CGqZFNqrqxm02sn-12" value="yes" style="edgeLabel;html=1;align=center;verticalAlign=middle;resizable=0;points=[];" vertex="1" connectable="0" parent="6qRR2CGqZFNqrqxm02sn-11">
          <mxGeometry x="0.05" y="-1" relative="1" as="geometry">
            <mxPoint as="offset" />
          </mxGeometry>
        </mxCell>
        <mxCell id="6qRR2CGqZFNqrqxm02sn-23" value="" style="edgeStyle=orthogonalEdgeStyle;rounded=0;orthogonalLoop=1;jettySize=auto;html=1;" edge="1" parent="1" source="6qRR2CGqZFNqrqxm02sn-13" target="6qRR2CGqZFNqrqxm02sn-22">
          <mxGeometry relative="1" as="geometry" />
        </mxCell>
        <mxCell id="6qRR2CGqZFNqrqxm02sn-28" value="no" style="edgeLabel;html=1;align=center;verticalAlign=middle;resizable=0;points=[];" vertex="1" connectable="0" parent="6qRR2CGqZFNqrqxm02sn-23">
          <mxGeometry x="-0.16" y="2" relative="1" as="geometry">
            <mxPoint as="offset" />
          </mxGeometry>
        </mxCell>
        <mxCell id="6qRR2CGqZFNqrqxm02sn-13" value="&lt;font style=&quot;font-size: 14px;&quot;&gt;i &amp;lt;&amp;nbsp;&lt;span style=&quot;font-size: 15px;&quot;&gt;sizeStrArr1&lt;/span&gt;?&lt;/font&gt;" style="rhombus;whiteSpace=wrap;html=1;" vertex="1" parent="1">
          <mxGeometry x="190" y="360" width="280" height="80" as="geometry" />
        </mxCell>
        <mxCell id="6qRR2CGqZFNqrqxm02sn-20" value="&lt;span style=&quot;font-size: 15px;&quot;&gt;i++&lt;/span&gt;" style="whiteSpace=wrap;html=1;rounded=0;" vertex="1" parent="1">
          <mxGeometry x="270" y="680" width="120" height="30" as="geometry" />
        </mxCell>
        <mxCell id="6qRR2CGqZFNqrqxm02sn-25" value="" style="edgeStyle=orthogonalEdgeStyle;rounded=0;orthogonalLoop=1;jettySize=auto;html=1;" edge="1" parent="1" source="6qRR2CGqZFNqrqxm02sn-22" target="6qRR2CGqZFNqrqxm02sn-24">
          <mxGeometry relative="1" as="geometry" />
        </mxCell>
        <mxCell id="6qRR2CGqZFNqrqxm02sn-22" value="&lt;span style=&quot;font-size: 15px;&quot;&gt;strArr2[]&lt;/span&gt;" style="shape=document;whiteSpace=wrap;html=1;boundedLbl=1;" vertex="1" parent="1">
          <mxGeometry x="520" y="360" width="120" height="80" as="geometry" />
        </mxCell>
        <mxCell id="6qRR2CGqZFNqrqxm02sn-24" value="End" style="ellipse;whiteSpace=wrap;html=1;" vertex="1" parent="1">
          <mxGeometry x="690" y="360" width="120" height="80" as="geometry" />
        </mxCell>
      </root>
    </mxGraphModel>
  </diagram>
</mxfile>
